<svg id="svg2" xmlns="http://www.w3.org/2000/svg" viewBox="0 0 705.109 256">
  <title>logo (2)</title>
  <g>
    <path id="path14" d="M357.652,162.888h15.694a30.493,30.493,0,0,1-10.909,16.244,29.878,29.878,0,0,1-18.491,5.906,31.727,31.727,0,0,1-10.893-1.824,28.283,28.283,0,0,1-9.13-5.442,30.273,30.273,0,0,1-7.522-10.161,30.894,30.894,0,0,1-.018-24.7,30.293,30.293,0,0,1,7.54-10.182,28.615,28.615,0,0,1,9.13-5.4,31.656,31.656,0,0,1,10.893-1.828,23.011,23.011,0,0,1,8.613,1.575,18.751,18.751,0,0,1,6.815,4.641v-5.127h13.169v22.073h-14.28a15.048,15.048,0,0,0-24.654-4.936,17.711,17.711,0,0,0-.077,22.927,13.69,13.69,0,0,0,10.49,4.509,15.08,15.08,0,0,0,7.962-2.04,16.07,16.07,0,0,0,5.668-6.239" style="fill: #213468"/>
    <path id="path16" d="M375.912,183.913V172.449h5.743V138.058h-5.743V126.594h26.11v11.464h-5.628v34.391h14.433l3.368-11.154h9.534v22.618H375.912" style="fill: #213468"/>
    <path id="path18" d="M442.334,155.272a16.109,16.109,0,0,0,4.172,11.386,14.479,14.479,0,0,0,20.981.019,17.749,17.749,0,0,0-.02-22.888,14.352,14.352,0,0,0-20.941.019A16.266,16.266,0,0,0,442.334,155.272Zm-15.543,0A29.284,29.284,0,0,1,436.9,132.733a28,28,0,0,1,9.11-5.42,33.881,33.881,0,0,1,21.84,0,27.965,27.965,0,0,1,9.131,5.42,30.274,30.274,0,0,1,7.524,10.182,30.8,30.8,0,0,1,0,24.7,30.306,30.306,0,0,1-7.524,10.161,28.255,28.255,0,0,1-9.131,5.442,33.54,33.54,0,0,1-21.82,0,28.251,28.251,0,0,1-9.13-5.442,30.309,30.309,0,0,1-7.525-10.161,29.688,29.688,0,0,1-2.584-12.339" style="fill: #213468"/>
    <path id="path20" d="M495.317,164.093V138.058h-5.741V126.594h26.339v11.464h-5.934v23.975q0,4.47,2.278,6.8t6.642,2.332q4.365,0,6.623-2.332t2.258-6.8V138.058h-5.9V126.594H548.15v11.464h-5.629v26.035q0,9.678-6.336,15.311T518.9,185.038q-10.911,0-17.247-5.634t-6.337-15.311" style="fill: #213468"/>
    <path id="path22" d="M571.157,138.058v34.391h4.365q8.728,0,13.227-4.352t4.5-12.825q0-8.51-4.48-12.862t-13.245-4.352Zm-20.788,45.855V172.449h5.7V138.058h-5.7V126.594h26.8a62.964,62.964,0,0,1,10.106.7,22.231,22.231,0,0,1,6.852,2.1,26.824,26.824,0,0,1,11.046,10.316q3.539,6.278,3.54,15.564,0,9.173-3.559,15.487a26.932,26.932,0,0,1-11.027,10.357,22.313,22.313,0,0,1-6.852,2.1,63.324,63.324,0,0,1-10.106.7h-26.8" style="fill: #213468"/>
    <path id="path24" d="M356.884,202.574a4.1,4.1,0,0,0,1.066,2.9,3.693,3.693,0,0,0,5.353,0,4.1,4.1,0,0,0,1.064-2.909,4.147,4.147,0,0,0-1.07-2.931,3.662,3.662,0,0,0-5.343,0A4.152,4.152,0,0,0,356.884,202.574Zm-3.966,0a7.482,7.482,0,0,1,2.58-5.751,7.129,7.129,0,0,1,2.325-1.383,8.62,8.62,0,0,1,5.574,0,7.121,7.121,0,0,1,2.328,1.383,7.709,7.709,0,0,1,1.921,2.6,7.643,7.643,0,0,1-1.921,8.894A7.226,7.226,0,0,1,363.4,209.7a8.549,8.549,0,0,1-5.568,0,7.2,7.2,0,0,1-2.331-1.389,7.691,7.691,0,0,1-1.921-2.593,7.592,7.592,0,0,1-.659-3.147" style="fill: #18c2e7"/>
    <path id="path26" d="M378.509,198.18v3.095h1.475a2.457,2.457,0,0,0,1.513-.378,1.641,1.641,0,0,0,0-2.339,2.457,2.457,0,0,0-1.513-.378Zm-5.207,11.7v-2.927h1.446V198.18H373.3v-2.924h8.889a3.678,3.678,0,0,1,2.73,1.055,3.722,3.722,0,0,1,1.052,2.743,3.267,3.267,0,0,1-.582,2,3.973,3.973,0,0,1-1.822,1.254,3,3,0,0,1,1.425.774,2.039,2.039,0,0,1,.372,1.337v2.538h1.3v2.927h-5.039v-3.411a4.093,4.093,0,0,0-.417-2.321,1.968,1.968,0,0,0-1.547-.486h-1.153v3.291h1.153v2.927H373.3" style="fill: #18c2e7"/>
    <path id="path28" d="M402.223,204.516h4a7.8,7.8,0,0,1-2.783,4.147,7.639,7.639,0,0,1-4.719,1.506,8.083,8.083,0,0,1-2.78-.466,7.22,7.22,0,0,1-2.329-1.389,7.7,7.7,0,0,1-1.92-2.593,7.882,7.882,0,0,1,0-6.3,7.693,7.693,0,0,1,1.924-2.6,7.34,7.34,0,0,1,2.329-1.38,8.13,8.13,0,0,1,2.78-.466,5.893,5.893,0,0,1,2.2.4,4.745,4.745,0,0,1,1.739,1.186v-1.309h3.361v5.632h-3.645a3.839,3.839,0,0,0-6.29-1.26,4.514,4.514,0,0,0-.018,5.85,3.485,3.485,0,0,0,2.676,1.151,3.834,3.834,0,0,0,2.031-.521,4.081,4.081,0,0,0,1.446-1.592" style="fill: #18c2e7"/>
    <path id="path30" d="M410.884,209.882v-2.927h1.464V198.18h-1.464v-2.924h6.721v2.924h-1.514v2.667h4.238V198.18h-1.523v-2.924h6.721v2.924h-1.455v8.775h1.455v2.927h-6.721v-2.927h1.523v-3.2h-4.238v3.2h1.514v2.927h-6.721" style="fill: #18c2e7"/>
    <path id="path32" d="M430.485,209.882v-2.927h1.466V198.18h-1.466v-2.924H443.41v5.266h-2.5l-.878-2.342h-4.318v2.38h2.833v3.253h-2.833v3.142h4.318l.878-2.844h2.5v5.771H430.485" style="fill: #18c2e7"/>
    <path id="path34" d="M452.245,208.355l.089,1.527h-3.147v-4.959h3.342A6.754,6.754,0,0,0,454.1,206.6a2.828,2.828,0,0,0,1.612.5,1.814,1.814,0,0,0,1.163-.351,1.133,1.133,0,0,0,.44-.929,1.093,1.093,0,0,0-.435-.892,2.79,2.79,0,0,0-1.295-.486l-1.534-.258a7.123,7.123,0,0,1-3.731-1.556,3.941,3.941,0,0,1-1.231-3.034,4.365,4.365,0,0,1,1.4-3.307,4.866,4.866,0,0,1,3.487-1.325,4.507,4.507,0,0,1,1.948.4,3.841,3.841,0,0,1,1.452,1.21l-.039-1.309h3.135v4.609h-3.135a5.487,5.487,0,0,0-1.265-1.58,2.225,2.225,0,0,0-1.4-.512,1.656,1.656,0,0,0-1.1.363,1.122,1.122,0,0,0-.436.9,1.033,1.033,0,0,0,.459.878,4.1,4.1,0,0,0,1.534.549l1.329.239a7.383,7.383,0,0,1,3.693,1.616,3.919,3.919,0,0,1,1.2,3A4.731,4.731,0,0,1,460,208.84a4.924,4.924,0,0,1-3.614,1.329,5.7,5.7,0,0,1-2.306-.451,5.329,5.329,0,0,1-1.836-1.363" style="fill: #18c2e7"/>
    <path id="path36" d="M469.034,209.882v-2.927H470.5v-8.813h-1.164l-.742,2.3h-2.3v-5.186H478.44v5.186h-2.3l-.733-2.3h-1.162v8.813H475.7v2.927h-6.662" style="fill: #18c2e7"/>
    <path id="path38" d="M488.469,198.18v3.095h1.476a2.464,2.464,0,0,0,1.514-.378,1.645,1.645,0,0,0,0-2.339,2.464,2.464,0,0,0-1.514-.378Zm-5.207,11.7v-2.927h1.446V198.18h-1.446v-2.924h8.891a3.684,3.684,0,0,1,2.73,1.055,3.725,3.725,0,0,1,1.05,2.743,3.267,3.267,0,0,1-.582,2,3.962,3.962,0,0,1-1.822,1.254,3.016,3.016,0,0,1,1.427.774,2.051,2.051,0,0,1,.371,1.337v2.538h1.3v2.927h-5.041v-3.411a4.089,4.089,0,0,0-.415-2.321,1.975,1.975,0,0,0-1.549-.486h-1.153v3.291h1.153v2.927h-6.36" style="fill: #18c2e7"/>
    <path id="path40" d="M507.056,202.386h2.783l-1.407-4.631Zm-6.165,7.5v-2.927h1.221l2.676-8.775h-1.416v-2.924h10.14v2.924h-1.4l2.656,8.775h1.242v2.927h-6.3v-2.927h1.28l-.577-1.973h-3.947l-.536,1.973h1.26v2.927h-6.3" style="fill: #18c2e7"/>
    <path id="path42" d="M521.636,209.882v-2.927H523.1v-8.813h-1.162l-.742,2.3h-2.3v-5.186h12.142v5.186h-2.306l-.732-2.3h-1.162v8.813H528.3v2.927h-6.662" style="fill: #18c2e7"/>
    <path id="path44" d="M539.83,202.574a4.108,4.108,0,0,0,1.065,2.9,3.692,3.692,0,0,0,5.352,0,4.1,4.1,0,0,0,1.067-2.909,4.147,4.147,0,0,0-1.07-2.931,3.663,3.663,0,0,0-5.344,0A4.156,4.156,0,0,0,539.83,202.574Zm-3.965,0a7.471,7.471,0,0,1,2.578-5.751,7.129,7.129,0,0,1,2.325-1.383,8.617,8.617,0,0,1,5.573,0,7.12,7.12,0,0,1,2.33,1.383,7.732,7.732,0,0,1,1.92,2.6,7.86,7.86,0,0,1,0,6.3,7.728,7.728,0,0,1-1.92,2.593,7.225,7.225,0,0,1-2.33,1.389,8.549,8.549,0,0,1-5.568,0,7.225,7.225,0,0,1-2.33-1.389,7.711,7.711,0,0,1-1.919-2.593,7.56,7.56,0,0,1-.659-3.147" style="fill: #18c2e7"/>
    <path id="path46" d="M561.454,198.18v3.095h1.475a2.462,2.462,0,0,0,1.514-.378,1.645,1.645,0,0,0,0-2.339,2.462,2.462,0,0,0-1.514-.378Zm-5.207,11.7v-2.927h1.446V198.18h-1.446v-2.924h8.891a3.679,3.679,0,0,1,2.729,1.055,3.725,3.725,0,0,1,1.05,2.743,3.26,3.26,0,0,1-.58,2,3.987,3.987,0,0,1-1.823,1.254,3.026,3.026,0,0,1,1.427.774,2.05,2.05,0,0,1,.372,1.337v2.538h1.3v2.927H564.57v-3.411a4.1,4.1,0,0,0-.414-2.321,1.976,1.976,0,0,0-1.549-.486h-1.153v3.291h1.153v2.927h-6.36" style="fill: #18c2e7"/>
  </g>
  <path id="path48" d="M184.572,238.507c-17.312,0-31.347-2.535-31.347-5.664s14.035-5.666,31.347-5.666,31.349,2.537,31.349,5.666-14.037,5.664-31.349,5.664" style="fill: #dfe1e2"/>
  <g>
    <path id="path50" d="M290.77,44.107a8.884,8.884,0,0,0-13.543-7.576,15.073,15.073,0,0,0-19.453-9.67l-.027-.043a13.653,13.653,0,0,0-5.619,4.012,11.1,11.1,0,0,1,4.988-5.087,17.174,17.174,0,0,0-31.686,9.19c0,.346.013.689.033,1.03a11.988,11.988,0,0,1,4.741,2.562,14.584,14.584,0,0,0-4.868-1.581,11.061,11.061,0,0,0-5.748,5.249c3.587.834,6.27,2.617,6.991,4.78-1.331-1.6-3.721-2.761-6.779-3.339-.225-.026-.5-.09-.73-.1l-.071.012c-.2-.012-.415-.019-.624-.019a11.043,11.043,0,1,0,0,22.085,11.357,11.357,0,0,0,1.312-.078,17.18,17.18,0,0,0,22.553,8.408,15.333,15.333,0,0,0,23.551.228A15.337,15.337,0,0,0,284.336,52.65a8.893,8.893,0,0,0,6.434-8.543" style="fill: #18c2e7"/>
    <path id="path52" d="M197.294,71.213l.059.04-.044-.051-.015.011" style="fill: #002742"/>
    <path id="path54" d="M162.065,108.645c-18.894-3.232-33.308-.923-36.841,7.257-1.79,4.142-.567,9.286,3.062,14.851-6.04-7.425-8.479-14.375-6.161-19.741,3.811-8.821,19.545-11.216,40.113-7.556l-.03.552c-.077,1.536-.12,3.086-.143,4.637Zm46.119,10.326c32.161,15.752,53.033,37.135,47.58,49.76-2.318,5.367-9.049,8.356-18.595,9.049,6.538-1.174,11.122-3.809,12.913-7.95,5.252-12.165-15.441-32.949-46.868-47.765a12.971,12.971,0,0,0,4.837-2.967l.133-.127" style="fill: #18c2e7;fill-rule: evenodd"/>
    <path id="path56" d="M207.72,93.757c.98-.815,1.873-1.535,2.741-2.285a4.532,4.532,0,0,1,2.914-1.308,7.722,7.722,0,0,0,6.587-3.666,24.619,24.619,0,0,1,5.907-5.325q5.658-3,11.3-6.032,10.712-5.805,21.4-11.646a10.8,10.8,0,0,0,2.133-1.419c.058-.145.1-.175-.121-.233a5.826,5.826,0,0,0-1.915.532c-3.5,1.754-6.97,3.55-10.441,5.348q-12.228,6.332-24.445,12.683c-.437.228-.675.155-1.054-.188a2.267,2.267,0,0,0-1.46-.58,13.792,13.792,0,0,0-3.045.479,13.04,13.04,0,0,0-3.609,1.306,31.614,31.614,0,0,0-8.182,7.834,1.341,1.341,0,0,0-.264,1.06c.5,1.258,1.11,2.475,1.557,3.44" style="fill: #213468;fill-rule: evenodd"/>
    <path id="path58" d="M197.307,71.2l-.023-.022.01.033.013-.011" style="fill: #061c2b;fill-rule: evenodd"/>
    <path id="path60" d="M155.269,65.736c-.627.243-1.231.539-1.967.866a7.206,7.206,0,0,1,1.2.611,1.03,1.03,0,0,1,.417.725,75.8,75.8,0,0,0-.662,12.551,10.978,10.978,0,0,0,1.368,5.333c1.088,1.846,2.093,3.746,3.079,5.649a6.029,6.029,0,0,0,3.355,3.106c1.661.58,3.382.991,5.09,1.419.913.228,1.444-.024,1.748,1.071a1.118,1.118,0,0,0,.821.63c4.6.239,6.914-.178,11.52.017.2.009,3.761.794,3.961.74,2.522-.693,4.3-1.232,6.836-1.875,1.823-.462,2.213-1.069,1.931-2.966a2.318,2.318,0,0,1,.454-1.761c1.4-1.368,1.469-1.4.7-3.064-.888-1.931-.875-2,.692-3.466a1.272,1.272,0,0,0,.149-2.061c-.665-.789-1.355-1.559-2.056-2.316a5.156,5.156,0,0,1-1.267-2.67,14.647,14.647,0,0,1,.611-6.637,22.235,22.235,0,0,1,.817-2.133l.25.041c.318.68.636,1.363.954,2.043l.084-.011c-.1-.755-.2-1.511-.327-2.516.88.83,1.568,1.475,2.252,2.118a2.8,2.8,0,0,0-.256-.791,50.746,50.746,0,0,0-3.492-5.062,16.358,16.358,0,0,0-7.554-5.18c-5.231-2.882-14.475-2.983-14.475-2.983l-.013.009a6.688,6.688,0,0,0-3.678.939c-2.666,1.615-5.246,3.366-7.876,5.035-1.777,1.128-2.735.913-3.914-.826-.182-.267-.327-.561-.5-.832-.157-.239-.333-.467-.5-.7l-.206.111c.038.183.06.37.113.549.3,1.077.594,2.157.929,3.225.19.6-.077.861-.591,1.061" style="fill: #213468;fill-rule: evenodd"/>
    <path id="path62" d="M186.009,100.548a40.7,40.7,0,0,0-5.788-1.172c-3.409-.131-6.836.116-10.254.216a.753.753,0,0,0-.819.98,8.311,8.311,0,0,1-1.462,5.61,14.511,14.511,0,0,0-2.233,8.415,48,48,0,0,0,.842,6.028,23.174,23.174,0,0,0,3.369,8.937,15,15,0,0,1,2.258,4.653,11.26,11.26,0,0,0,1.138,2.953,7.1,7.1,0,0,1,.769,5.044c-.271,1.686-.554,3.378-.974,5.028-.58,2.277-1.2,4.552-1.984,6.767a35.781,35.781,0,0,1-1.9,3.985l.551.269c.387.021.774.039,1.166.058-.054.146-.108.288-.162.432q4.186,2.044,8.565,3.946a191.274,191.274,0,0,0,23.283,8.359c.481-2.022.915-4.062,1.217-6.118.47-3.206.769-6.439,1.107-9.664.052-.508.209-.714.725-.774.819-.095,1.625-.295,2.44-.424.512-.082.547-.3.463-.8a62.052,62.052,0,0,1-.929-6.547c-.157-2.74.013-5.5-.047-8.245a13,13,0,0,0-2.359-7.563A112.161,112.161,0,0,1,197,118.635c-.314-.578-.621-1.159-.978-1.828,1.176-.335,2.2-.6,3.2-.92,1.875-.595,3.734-1.137,5.692-.273a1.552,1.552,0,0,0,.992-.176c1.09-.432,2.139-.992,3.253-1.34,1.57-.488,3.213-.748,4.772-1.26,1.669-.548,3.273-1.295,4.918-1.923,3.215-1.227,6.441-2.425,9.66-3.644,1.232-.463,1.636-1.013,1.419-2.288a14.927,14.927,0,0,0-3.613-7.643,2.2,2.2,0,0,0-2.569-.507c-2.607.814-5.23,1.606-7.892,2.219-2.471.57-4.962,1-7.17,2.363a7.941,7.941,0,0,1-1.58.751,2.374,2.374,0,0,1-.884-.061c.155-.251.251-.587.473-.735,1.144-.772,2.3-1.529,3.5-2.226a1.788,1.788,0,0,0,.753-2.8,4.378,4.378,0,0,0-.282.341c-.718,1.041-1.376,1.119-2.3.231a17.115,17.115,0,0,1-1.387-1.488c-.989-1.194-2.13-2.3-2.455-3.914-.125-.613-.217-1.234-.366-2.1-1.193.906-2.2,1.654-3.182,2.434a1.006,1.006,0,0,0-.233.553c-.255,1.183-.709,1.522-1.873,1.542a2.124,2.124,0,0,0-1.18.38,41.763,41.763,0,0,1-9.974,6.105,3.286,3.286,0,0,1-1.7.112" style="fill: #213468;fill-rule: evenodd"/>
    <path id="path64" d="M165.815,182.124c.015,1.664.075,3.324.233,4.973a51.1,51.1,0,0,0,1.491,7.262c.617,2.512,1.445,4.477,4.725,4.588a1.815,1.815,0,0,1,1.671,1.746c-.006,3.874-.033,7.745-.037,11.618a11.861,11.861,0,0,1-2.509,7.744A5.315,5.315,0,0,0,170.357,222c-1.667,6.548,4.092,5.949,7.352,10.187,1.849,1.725,6.4,4.025,8.663,4.093,1.777.054,3.542.094,5.323.146a6.134,6.134,0,0,0,2.4-.286c.649-.265,1.215-.639,1.023-1.351a4.02,4.02,0,0,0-.761-1.344l-.088-.053c-2-1.4-3.978-2.843-5.872-4.383a7.824,7.824,0,0,1-3.044-6.912c.2-2.709.5-5.408.7-8.115.229-3.208.368-6.423.586-9.632.127-1.862,1.037-3.1,2.537-3.443a32.656,32.656,0,0,1,3.391-.59,2.757,2.757,0,0,0,2.725-2.336c.415-1.518.838-3.036,1.257-4.554a211.639,211.639,0,0,1-26.639-9.488q-2.064-.889-4.1-1.817" style="fill: #213468;fill-rule: evenodd"/>
    <path id="path66" d="M258.3,157.807c2.283,4.815,2.787,9.251,1.174,12.986-6.359,14.724-43.163,12.989-82.206-3.873s-65.537-42.468-59.178-57.192c1.614-3.735,5.187-6.41,10.259-8.048-11.221,1.27-19.212,5.262-22.134,12.031-7.582,17.551,21.754,47.1,65.525,66.008s85.4,20,92.976,2.45c2.925-6.768.351-15.322-6.416-24.362" style="fill: #213468;fill-rule: evenodd"/>
    <path id="path68" d="M328.955,53.648a8.357,8.357,0,0,0,.1-1.273,8.292,8.292,0,0,0-16.15-2.649l.079.06a5.039,5.039,0,0,1,1.837,3.308,5.988,5.988,0,0,0-5.365-3.852,6.815,6.815,0,0,0-6.671,6.116,4.97,4.97,0,0,1,2.592,1.157,6.017,6.017,0,0,0-2.626-.676l0,.048c-.134-.011-.269-.017-.4-.017a5.341,5.341,0,0,0-1.329.165l-.015,0c-.081.022-.161.044-.24.069l-.039.013a5.346,5.346,0,0,0,1.623,10.44,5.28,5.28,0,0,0,1.16-.129,8.311,8.311,0,0,0,6.061,2.633,8.515,8.515,0,0,0,1.134-.078,6.818,6.818,0,0,0,7.337.077A7.549,7.549,0,0,0,328.826,66.1a6.227,6.227,0,0,0,.129-12.451" style="fill: #18c2e7"/>
    <path id="path70" d="M312.1,94.852a5.909,5.909,0,0,0-3.405,1.092,5.735,5.735,0,0,0-5.236-3.722,5.389,5.389,0,0,0-3.423,1.245,6.022,6.022,0,0,0-1.3,1.478,7.2,7.2,0,0,0-6.125-3.6,6.794,6.794,0,0,0-1.44.155,9.13,9.13,0,0,0-8.507-6.512,9.223,9.223,0,0,0-8.746,7.369,10.653,10.653,0,0,1,2.473,3.452,13.608,13.608,0,0,0-2.626-2.682c-.135-.1-.273-.2-.413-.3a14.188,14.188,0,0,0-1.546-.974c-.21-.112-.421-.217-.634-.318a8.351,8.351,0,0,0-3.174-.626c-5,0-9.042,4.415-9.042,9.864a10.272,10.272,0,0,0,2.84,7.176,10.741,10.741,0,0,1,1.648-4.245,13.771,13.771,0,0,0-.912,4.924c0,.355.008.71.032,1.069l.009.09a13.786,13.786,0,0,0,1.778,5.849,8.81,8.81,0,0,0,7.262,3.99,8.546,8.546,0,0,0,5.686-2.2,8.495,8.495,0,0,0,1.756,1.451,7.764,7.764,0,0,0,4.112,1.185,8.055,8.055,0,0,0,6.326-3.172,6.837,6.837,0,0,0,3.52.979,7.4,7.4,0,0,0,6.888-5.249,7.88,7.88,0,0,0,5.168,1.961,8.415,8.415,0,0,0,7.836-5.98,6.724,6.724,0,0,0,5.526-6.845,6.635,6.635,0,0,0-6.328-6.905" style="fill: #18c2e7"/>
    <path id="path72" d="M245.973,91.749a25.126,25.126,0,0,0-5.851-.787,3.182,3.182,0,0,1,2.008-.6c1.83.019,3.686-.51,2.25-1.2a7.885,7.885,0,0,0-5.006-.1c-.624.395-3.845,3.315-5.305,4.234s-4,3.436-5.093,3.537a22.732,22.732,0,0,1,1.366,2.667c.241.743.595,3.348.595,3.348S240.178,98.288,242,98.1s3.877.112,4.352-1.146-5.079-1.037-5.023-1.312c.1-.475,5.849.31,5.881-.83.029-.869-5.234-.963-5.186-1.615.023-.277,1.985.069,3.212.189,2.353.228,1.886-.976,1.886-.976a2.429,2.429,0,0,0-1.148-.658" style="fill: #213468"/>
  </g>
</svg>
